<?xml version="1.0" standalone="no"?>
<!DOCTYPE svg PUBLIC "-//W3C//DTD SVG 20010904//EN"
 "http://www.w3.org/TR/2001/REC-SVG-20010904/DTD/svg10.dtd">
<svg version="1.0" xmlns="http://www.w3.org/2000/svg"
 width="512.000000pt" height="512.000000pt" viewBox="0 0 512.000000 512.000000"
 preserveAspectRatio="xMidYMid meet">
<metadata>
Created by potrace 1.11, written by Peter Selinger 2001-2013
</metadata>
<g transform="translate(0.000000,512.000000) scale(0.100000,-0.100000)"
fill="#000000" stroke="none">
<path d="M1320 3805 c-7 -8 -11 -15 -9 -16 31 -6 40 -6 44 1 3 4 -1 13 -9 19
-10 9 -16 8 -26 -4z m24 -3 c3 -5 -1 -9 -9 -9 -8 0 -12 4 -9 9 3 4 7 8 9 8 2
0 6 -4 9 -8z"/>
<path d="M4686 3717 c3 -10 9 -15 12 -12 3 3 0 11 -7 18 -10 9 -11 8 -5 -6z"/>
<path d="M1985 3680 c3 -5 13 -10 21 -10 8 0 12 5 9 10 -3 6 -13 10 -21 10 -8
0 -12 -4 -9 -10z"/>
<path d="M2398 3675 c-2 -2 -25 -6 -53 -9 -27 -3 -59 -7 -70 -10 -11 -3 -51
-13 -90 -22 -38 -9 -74 -20 -80 -24 -5 -4 -28 -13 -50 -20 -164 -53 -349 -172
-500 -324 -132 -133 -153 -161 -227 -291 -31 -55 -66 -115 -77 -133 -12 -18
-21 -41 -21 -51 0 -10 -12 -51 -26 -91 -14 -41 -27 -85 -29 -99 -2 -14 -8 -46
-13 -71 -15 -65 -25 -172 -26 -265 0 -82 10 -221 18 -234 3 -4 8 -41 12 -82 7
-83 9 -89 30 -89 11 0 13 6 9 19 -3 11 -8 45 -10 77 -3 31 -7 64 -9 73 -9 31
-18 157 -18 251 1 84 3 113 17 195 1 11 6 38 9 60 4 22 12 58 18 80 6 22 12
45 14 50 9 45 61 172 97 239 126 235 307 425 538 561 94 56 125 65 147 43 9
-9 12 -6 12 13 0 23 8 28 78 51 169 57 266 73 457 72 216 0 403 -45 598 -143
182 -92 361 -243 490 -412 93 -123 203 -358 232 -499 32 -153 36 -189 37 -329
0 -113 -26 -317 -47 -373 -9 -23 12 -32 23 -11 15 28 41 160 48 243 11 125 7
288 -11 382 -12 63 -18 89 -36 153 -66 230 -185 431 -364 611 -173 174 -308
258 -546 340 -53 18 -125 38 -160 44 -35 6 -75 14 -89 16 -26 6 -327 13 -332
9z"/>
<path d="M4900 3651 c0 -6 5 -13 10 -16 6 -3 10 1 10 9 0 9 -4 16 -10 16 -5 0
-10 -4 -10 -9z"/>
<path d="M4911 3504 c0 -11 3 -14 6 -6 3 7 2 16 -1 19 -3 4 -6 -2 -5 -13z"/>
<path d="M1416 3377 c3 -10 9 -15 12 -12 3 3 0 11 -7 18 -10 9 -11 8 -5 -6z"/>
<path d="M3616 3261 c-3 -5 1 -11 9 -15 8 -3 15 -1 15 4 0 13 -18 22 -24 11z"/>
<path d="M1826 3204 c-10 -25 1 -29 14 -5 6 12 7 21 1 21 -5 0 -12 -7 -15 -16z"/>
<path d="M3733 3166 c1 -16 9 -32 17 -34 12 -4 13 -2 4 9 -7 8 -14 23 -17 34
-4 13 -5 9 -4 -9z"/>
<path d="M1647 3065 c3 -8 9 -12 14 -9 12 7 11 11 -5 17 -10 4 -13 1 -9 -8z"/>
<path d="M3410 3005 c0 -8 7 -15 16 -15 14 0 14 3 4 15 -7 8 -14 15 -16 15 -2
0 -4 -7 -4 -15z"/>
<path d="M2396 2828 c-22 -5 -44 -12 -50 -17 -6 -5 -34 -19 -63 -30 -84 -33
-141 -74 -184 -132 -23 -30 -44 -56 -48 -59 -4 -3 -70 -88 -146 -190 -309
-411 -430 -532 -556 -555 -18 -3 -43 -8 -54 -10 -11 -2 -53 -4 -92 -4 -60 -1
-73 -4 -73 -17 0 -13 14 -15 92 -13 198 7 268 46 453 254 22 26 25 27 14 6
-19 -40 -15 -121 10 -169 23 -44 98 -102 133 -102 10 0 18 -6 18 -14 0 -8 13
-16 31 -18 26 -4 30 -2 26 14 -3 11 0 18 9 18 28 0 93 40 118 73 14 18 30 53
37 78 l12 46 63 -63 c228 -225 596 -194 797 66 l27 35 0 -33 c0 -41 24 -99 53
-130 28 -30 88 -61 125 -65 15 -2 33 -6 38 -10 6 -3 20 0 30 8 10 8 27 15 36
15 46 1 128 110 130 171 1 16 5 32 10 35 5 3 46 -30 92 -74 89 -84 131 -109
211 -127 55 -12 60 -12 158 -1 48 6 65 12 58 19 -9 9 -49 10 -131 3 -42 -3
-125 19 -173 47 -89 53 -280 267 -542 608 -43 57 -88 113 -100 124 -11 11 -29
31 -40 45 -35 44 -132 120 -180 141 -60 27 -275 43 -349 27z m209 -39 c128
-22 256 -107 328 -220 54 -85 70 -141 74 -257 3 -112 -15 -180 -69 -273 -155
-263 -540 -315 -761 -103 -210 201 -214 521 -10 721 58 57 177 122 239 130 22
3 41 7 43 9 7 7 97 3 156 -7z m398 -262 c4 -12 182 -241 233 -301 30 -35 30
-40 2 -25 -42 23 -198 -11 -198 -43 0 -5 -4 -8 -9 -8 -5 0 -5 16 -1 38 17 76
17 138 -1 221 -11 46 -26 95 -34 108 -9 12 -11 23 -6 23 5 0 11 -6 14 -13z
m-990 -64 c-16 -39 -23 -78 -27 -153 -2 -40 2 -71 19 -147 l5 -22 -37 22 c-47
27 -132 29 -182 4 -46 -23 -47 -22 -11 21 61 74 201 258 218 285 24 39 34 33
15 -10z m1230 -297 c60 -25 120 -115 112 -168 -21 -134 -138 -203 -258 -153
-79 33 -119 143 -83 229 35 85 144 129 229 92z m-1273 -40 c46 -31 75 -87 74
-148 -1 -112 -121 -193 -224 -151 -63 25 -106 80 -115 145 -5 40 37 133 68
151 72 41 139 42 197 3z"/>
<path d="M2285 2505 c-60 -59 -4 -151 74 -124 35 12 51 35 51 74 0 33 -42 75
-75 75 -14 0 -37 -11 -50 -25z"/>
<path d="M2651 2504 c-28 -35 -27 -75 2 -102 31 -29 69 -28 101 4 34 34 33 64
-2 97 -36 35 -74 35 -101 1z"/>
<path d="M3910 2610 c0 -5 5 -10 11 -10 5 0 7 5 4 10 -3 6 -8 10 -11 10 -2 0
-4 -4 -4 -10z"/>
<path d="M3765 2299 c-4 -6 -5 -12 -2 -15 2 -3 7 2 10 11 7 17 1 20 -8 4z"/>
<path d="M3435 2280 c3 -5 8 -10 11 -10 2 0 4 5 4 10 0 6 -5 10 -11 10 -5 0
-7 -4 -4 -10z"/>
<path d="M4595 2260 c3 -5 8 -10 11 -10 2 0 4 5 4 10 0 6 -5 10 -11 10 -5 0
-7 -4 -4 -10z"/>
<path d="M4056 2185 c-3 -8 -1 -15 4 -15 6 0 10 7 10 15 0 8 -2 15 -4 15 -2 0
-6 -7 -10 -15z"/>
<path d="M1334 1974 c-18 -14 -18 -15 4 -4 12 6 22 13 22 15 0 8 -5 6 -26 -11z"/>
<path d="M1590 1675 c7 -9 15 -13 17 -11 7 7 -7 26 -19 26 -6 0 -6 -6 2 -15z"/>
<path d="M2380 1660 c0 -5 5 -10 11 -10 5 0 7 5 4 10 -3 6 -8 10 -11 10 -2 0
-4 -4 -4 -10z"/>
</g>
</svg>
